<?xml version="1.0" encoding="UTF-8" standalone="no"?>
<!DOCTYPE svg PUBLIC "-//W3C//DTD SVG 1.1//EN" "http://www.w3.org/Graphics/SVG/1.1/DTD/svg11.dtd">
<svg width="100%" height="100%" viewBox="0 0 96 122" version="1.1" xmlns="http://www.w3.org/2000/svg" xmlns:xlink="http://www.w3.org/1999/xlink" xml:space="preserve" xmlns:serif="http://www.serif.com/" style="fill-rule:evenodd;clip-rule:evenodd;stroke-linejoin:round;stroke-miterlimit:2;">
    <g transform="matrix(1,0,0,1,-1057.339966,-725.490544)">
        <g>
            <g>
                <g>
                    <g transform="matrix(1,0,0,1,-18,-72)">
                        <path d="M1146.42,819.87L1134.74,819.34" style="fill:none;"/>
                    </g>
                    <g transform="matrix(1,0,0,1,-18,-72)">
                        <path d="M1111.25,819.27L1099.52,820.1" style="fill:none;"/>
                    </g>
                    <g transform="matrix(1,0,0,1,-18,-72)">
                        <path d="M1161.89,858.62L1161.28,904.09" style="fill:none;"/>
                    </g>
                    <g transform="matrix(1,0,0,1,-18,-72)">
                        <path d="M1084.09,903.88L1084.02,858.81" style="fill:none;"/>
                    </g>
                    <g transform="matrix(1,0,0,1,-18,-72)">
                        <path d="M1108.02,865.8C1102.31,865.91 1096.67,867.45 1097.15,874.08C1097.56,879.8 1097.65,883.81 1097.4,886.12C1096.76,892.16 1099.48,896.08 1105.75,896.03C1116.41,895.96 1127.01,895.91 1137.56,895.86C1142.44,895.84 1146.51,895.23 1147.55,890.29C1147.87,888.78 1148.1,883.75 1148.23,875.21C1148.26,873.26 1148.05,871.86 1147.6,871C1145.26,866.55 1142.95,866.67 1138.47,865.92C1138.16,865.87 1137.87,866.06 1137.78,866.36L1137.45,867.54" style="fill:none;"/>
                    </g>
                    <g transform="matrix(1,0,0,1,-18,-72)">
                        <path d="M1137.45,867.54C1137.9,863.68 1136.57,861.2 1133.44,860.11C1133.25,860.05 1133.06,860.02 1132.86,860.02L1112.65,860.19C1112.46,860.19 1112.28,860.22 1112.11,860.28C1109.46,861.12 1108.1,862.96 1108.02,865.8" style="fill:none;"/>
                    </g>
                    <g transform="matrix(1,0,0,1,-18,-72)">
                        <path d="M1137.45,867.54C1137.55,872.31 1138.91,879.53 1131.52,879.51C1125.15,879.49 1119.4,879.54 1114.27,879.65C1111.69,879.7 1109.89,878.85 1108.87,877.1C1107.55,874.85 1108.06,869 1108.02,865.8" style="fill:none;"/>
                    </g>
                    <g transform="matrix(1,0,0,1,-18,-72)">
                        <path d="M1146.42,819.87L1134.74,819.34C1132.89,804.67 1113,804.63 1111.25,819.27L1099.52,820.1C1100.49,806.55 1110.05,797.15 1123.42,797.5C1136.53,797.84 1145.14,806.5 1146.42,819.87Z" style="fill:rgb(243,98,5);fill-rule:nonzero;"/>
                    </g>
                    <g transform="matrix(1,0,0,1,-18,-72)">
                        <path d="M1134.74,819.34L1146.42,819.87C1148.7,820.97 1150.27,821.81 1151.12,822.38C1154.76,824.83 1157.6,828.11 1159.65,832.2C1160.8,834.51 1161.42,837.69 1161.49,841.75C1161.64,849.63 1161.7,854.63 1161.68,856.75C1161.68,857.36 1161.75,857.98 1161.89,858.62L1161.28,904.09C1160.68,907.84 1159.05,910.94 1156.38,913.4C1152,917.43 1147.74,918.58 1141.42,918.6C1121.68,918.69 1107.87,918.59 1100,918.29C1096.74,918.17 1093.63,916.93 1090.67,914.56C1086.91,911.57 1084.72,908.01 1084.09,903.88L1084.02,858.81C1084.15,852.96 1084.27,847.19 1084.36,841.49C1084.52,832.07 1089.27,823.79 1098.53,820.83C1098.7,820.78 1098.86,820.69 1098.99,820.57L1099.52,820.1L1111.25,819.27L1134.74,819.34ZM1108.02,865.8C1102.31,865.91 1096.67,867.45 1097.15,874.08C1097.56,879.8 1097.65,883.81 1097.4,886.12C1096.76,892.16 1099.48,896.08 1105.75,896.03C1116.41,895.96 1127.01,895.91 1137.56,895.86C1142.44,895.84 1146.51,895.23 1147.55,890.29C1147.87,888.78 1148.1,883.75 1148.23,875.21C1148.26,873.26 1148.05,871.86 1147.6,871C1145.26,866.55 1142.95,866.67 1138.47,865.92C1138.16,865.87 1137.87,866.06 1137.78,866.36L1137.45,867.54C1137.9,863.68 1136.57,861.2 1133.44,860.11C1133.25,860.05 1133.06,860.02 1132.86,860.02L1112.65,860.19C1112.46,860.19 1112.28,860.22 1112.11,860.28C1109.46,861.12 1108.1,862.96 1108.02,865.8Z" style="fill:rgb(253,135,35);fill-rule:nonzero;"/>
                    </g>
                    <g transform="matrix(1,0,0,1,-18,-72)">
                        <path d="M1161.28,904.09L1161.89,858.62C1165.11,859.41 1167.44,860.97 1168.89,863.28C1169.88,864.87 1170.38,867.59 1170.39,871.45C1170.4,879.16 1170.38,886.84 1170.32,894.49C1170.28,900.06 1167.27,903.26 1161.28,904.09Z" style="fill:rgb(243,98,5);fill-rule:nonzero;"/>
                    </g>
                    <g transform="matrix(1,0,0,1,-18,-72)">
                        <path d="M1084.02,858.81L1084.09,903.88C1079.31,903.17 1076.41,900.59 1075.38,896.16C1075.35,896.03 1075.34,895.89 1075.34,895.75L1075.34,866.59C1075.34,866.42 1075.36,866.25 1075.41,866.08C1076.57,861.91 1079.44,859.48 1084.02,858.81Z" style="fill:rgb(243,98,5);fill-rule:nonzero;"/>
                    </g>
                    <g transform="matrix(1,0,0,1,-18,-72)">
                        <path d="M1137.45,867.54C1137.55,872.31 1138.91,879.53 1131.52,879.51C1125.15,879.49 1119.4,879.54 1114.27,879.65C1111.69,879.7 1109.89,878.85 1108.87,877.1C1107.55,874.85 1108.06,869 1108.02,865.8C1108.1,862.96 1109.46,861.12 1112.11,860.28C1112.28,860.22 1112.46,860.19 1112.65,860.19L1132.86,860.02C1133.06,860.02 1133.25,860.05 1133.44,860.11C1136.57,861.2 1137.9,863.68 1137.45,867.54Z" style="fill:rgb(255,188,13);fill-rule:nonzero;"/>
                    </g>
                    <g transform="matrix(1,0,0,1,-18,-72)">
                        <path d="M1108.02,865.8C1108.06,869 1107.55,874.85 1108.87,877.1C1109.89,878.85 1111.69,879.7 1114.27,879.65C1119.4,879.54 1125.15,879.49 1131.52,879.51C1138.91,879.53 1137.55,872.31 1137.45,867.54L1137.78,866.36C1137.87,866.06 1138.16,865.87 1138.47,865.92C1142.95,866.67 1145.26,866.55 1147.6,871C1148.05,871.86 1148.26,873.26 1148.23,875.21C1148.1,883.75 1147.87,888.78 1147.55,890.29C1146.51,895.23 1142.44,895.84 1137.56,895.86C1127.01,895.91 1116.41,895.96 1105.75,896.03C1099.48,896.08 1096.76,892.16 1097.4,886.12C1097.65,883.81 1097.56,879.8 1097.15,874.08C1096.67,867.45 1102.31,865.91 1108.02,865.8Z" style="fill:rgb(243,98,5);fill-rule:nonzero;"/>
                    </g>
                </g>
            </g>
        </g>
    </g>
</svg>
